<svg width="1200" height="640" viewBox="0 0 1200 640" fill="none" xmlns="http://www.w3.org/2000/svg">
  <defs>
    <linearGradient id="bg" x1="80" y1="42" x2="1122" y2="602" gradientUnits="userSpaceOnUse">
      <stop stop-color="#FFF7ED"/>
      <stop offset="1" stop-color="#FEF3C7"/>
    </linearGradient>
    <linearGradient id="card" x1="0" y1="0" x2="320" y2="180" gradientUnits="userSpaceOnUse">
      <stop stop-color="#FFFFFF"/>
      <stop offset="1" stop-color="#FFF7ED"/>
    </linearGradient>
    <filter id="shadow" x="-20%" y="-20%" width="140%" height="140%">
      <feDropShadow dx="0" dy="16" stdDeviation="16" flood-color="#7C2D12" flood-opacity="0.15"/>
    </filter>
  </defs>

  <rect width="1200" height="640" rx="28" fill="url(#bg)"/>
  <circle cx="1034" cy="134" r="170" fill="#F97316" opacity="0.08"/>
  <circle cx="980" cy="506" r="178" fill="#10B981" opacity="0.08"/>

  <rect x="58" y="56" width="226" height="38" rx="19" fill="#FFFFFF" stroke="#F59E0B"/>
  <text x="82" y="80" fill="#9A3412" font-family="Arial, Helvetica, sans-serif" font-size="18" font-weight="800">SKILLS + CLAUDE + AGENT SKILLS</text>

  <text x="58" y="162" fill="#7C2D12" font-family="Arial, Helvetica, sans-serif" font-size="58" font-weight="800">SEO Skills Pack</text>
  <text x="58" y="210" fill="#9A3412" font-family="Arial, Helvetica, sans-serif" font-size="22">Portable SEO skill system for Codex, Claude Code, and Agent Skills-compatible tools.</text>
  <text x="58" y="244" fill="#9A3412" font-family="Arial, Helvetica, sans-serif" font-size="22">Installs shared memory, DEJAN workflows, subagents, and research-ready operator context.</text>

  <rect x="58" y="284" width="116" height="34" rx="17" fill="#FFFFFF" stroke="#FDBA74"/>
  <text x="90" y="306" fill="#9A3412" font-family="Arial, Helvetica, sans-serif" font-size="16" font-weight="700">Codex</text>

  <rect x="186" y="284" width="148" height="34" rx="17" fill="#FFFFFF" stroke="#FCD34D"/>
  <text x="214" y="306" fill="#9A3412" font-family="Arial, Helvetica, sans-serif" font-size="16" font-weight="700">Claude Code</text>

  <rect x="346" y="284" width="146" height="34" rx="17" fill="#FFFFFF" stroke="#6EE7B7"/>
  <text x="372" y="306" fill="#047857" font-family="Arial, Helvetica, sans-serif" font-size="16" font-weight="700">Subagents</text>

  <rect x="504" y="284" width="168" height="34" rx="17" fill="#FFFFFF" stroke="#93C5FD"/>
  <text x="529" y="306" fill="#1D4ED8" font-family="Arial, Helvetica, sans-serif" font-size="16" font-weight="700">Agent Skills</text>

  <rect x="58" y="338" width="248" height="110" rx="22" fill="url(#card)" stroke="#FDBA74" filter="url(#shadow)"/>
  <text x="84" y="374" fill="#C2410C" font-family="Arial, Helvetica, sans-serif" font-size="18">Skill Directories</text>
  <text x="84" y="424" fill="#7C2D12" font-family="Arial, Helvetica, sans-serif" font-size="50" font-weight="800">5</text>

  <rect x="330" y="338" width="248" height="110" rx="22" fill="url(#card)" stroke="#FCD34D" filter="url(#shadow)"/>
  <text x="356" y="374" fill="#C2410C" font-family="Arial, Helvetica, sans-serif" font-size="18">SEO Memory Notes</text>
  <text x="356" y="424" fill="#7C2D12" font-family="Arial, Helvetica, sans-serif" font-size="50" font-weight="800">140</text>

  <rect x="58" y="470" width="248" height="110" rx="22" fill="url(#card)" stroke="#6EE7B7" filter="url(#shadow)"/>
  <text x="84" y="506" fill="#047857" font-family="Arial, Helvetica, sans-serif" font-size="18">Claude Agents</text>
  <text x="84" y="556" fill="#065F46" font-family="Arial, Helvetica, sans-serif" font-size="50" font-weight="800">2</text>

  <rect x="330" y="470" width="248" height="110" rx="22" fill="url(#card)" stroke="#93C5FD" filter="url(#shadow)"/>
  <text x="356" y="506" fill="#1D4ED8" font-family="Arial, Helvetica, sans-serif" font-size="18">Durable Memories</text>
  <text x="356" y="556" fill="#1E3A8A" font-family="Arial, Helvetica, sans-serif" font-size="50" font-weight="800">7</text>

  <rect x="688" y="116" width="424" height="422" rx="28" fill="#FFFFFF" stroke="#FED7AA" filter="url(#shadow)"/>
  <text x="722" y="162" fill="#7C2D12" font-family="Arial, Helvetica, sans-serif" font-size="24" font-weight="800">Delivery Layers</text>

  <rect x="722" y="194" width="162" height="76" rx="18" fill="#FFF7ED" stroke="#FDBA74"/>
  <text x="762" y="238" fill="#9A3412" font-family="Arial, Helvetica, sans-serif" font-size="22" font-weight="700">Codex</text>

  <rect x="916" y="194" width="162" height="76" rx="18" fill="#FEF2F2" stroke="#FDA4AF"/>
  <text x="939" y="238" fill="#BE123C" font-family="Arial, Helvetica, sans-serif" font-size="22" font-weight="700">Claude Code</text>

  <rect x="722" y="296" width="162" height="76" rx="18" fill="#ECFDF5" stroke="#6EE7B7"/>
  <text x="747" y="340" fill="#047857" font-family="Arial, Helvetica, sans-serif" font-size="22" font-weight="700">Subagents</text>

  <rect x="916" y="296" width="162" height="76" rx="18" fill="#EFF6FF" stroke="#93C5FD"/>
  <text x="930" y="340" fill="#1D4ED8" font-family="Arial, Helvetica, sans-serif" font-size="22" font-weight="700">Agent Skills</text>

  <rect x="820" y="410" width="160" height="74" rx="20" fill="#F8FAFC" stroke="#CBD5E1"/>
  <text x="854" y="454" fill="#334155" font-family="Arial, Helvetica, sans-serif" font-size="24" font-weight="700">Memory</text>

  <text x="720" y="580" fill="#9A3412" font-family="Arial, Helvetica, sans-serif" font-size="18">One SEO knowledge layer, multiple agent runtimes.</text>
</svg>
